# Blender v2.92.0 OBJ File: ''
# www.blender.org
mtllib Fire_escape_door_single.mtl
o Plane.1
v 0.844000 1.940000 0.000000
v 0.844000 1.460000 0.000000
v 0.556000 1.460000 0.000000
v 0.556000 1.940000 0.000000
v 0.261384 0.991180 0.066622
v 0.261384 0.982360 0.081899
v 0.261384 1.000000 0.081899
v 1.138616 0.991180 0.066622
v 1.138616 0.982360 0.081899
v 0.985945 0.982360 0.081899
v 0.424953 0.982360 0.081899
v 0.422137 0.982360 0.081899
v 1.138616 1.000000 0.081899
v 0.261384 1.008820 0.066622
v 1.138616 1.008820 0.066622
v 0.261384 1.017640 0.081899
v 0.429434 1.017640 0.081899
v 0.432325 1.017640 0.081899
v 0.978167 1.017640 0.081899
v 1.138616 1.017640 0.081899
v 0.261384 1.008820 0.097175
v 0.429089 1.008820 0.097175
v 1.138616 1.008820 0.097175
v 0.261384 0.991180 0.097175
v 0.425440 0.991180 0.097175
v 1.138616 0.991180 0.097175
v 1.120000 0.955000 0.060000
v 1.120000 0.967430 0.060000
v 1.080000 0.967430 0.060000
v 1.080000 0.955000 0.060000
v 1.120000 0.955000 -0.060000
v 1.120000 0.967430 -0.060000
v 1.080000 0.955000 -0.060000
v 1.080000 0.967430 -0.060000
v 1.080000 1.034550 0.060000
v 1.080000 1.045000 0.060000
v 1.080000 1.045000 -0.060000
v 1.080000 1.034550 -0.060000
v 1.120000 1.045000 0.060000
v 1.120000 1.045000 -0.060000
v 1.120000 1.034550 0.060000
v 1.120000 1.034550 -0.060000
v 1.120000 0.967430 0.110000
v 1.120000 1.034550 0.110000
v 1.080000 1.034550 0.110000
v 1.080000 0.967430 0.110000
v 0.320000 0.955000 0.060000
v 0.320000 0.967430 0.060000
v 0.280000 0.967430 0.060000
v 0.280000 0.955000 0.060000
v 0.320000 0.955000 -0.060000
v 0.320000 0.967430 -0.060000
v 0.280000 0.955000 -0.060000
v 0.280000 0.967430 -0.060000
v 0.280000 1.034550 0.060000
v 0.280000 1.045000 0.060000
v 0.280000 1.045000 -0.060000
v 0.280000 1.034550 -0.060000
v 0.320000 1.045000 0.060000
v 0.320000 1.045000 -0.060000
v 0.320000 1.034550 0.060000
v 0.320000 1.034550 -0.060000
v 0.320000 0.967430 0.110000
v 0.320000 1.034550 0.110000
v 0.280000 1.034550 0.110000
v 0.280000 0.967430 0.110000
v 1.167864 0.080000 0.025000
v 1.190000 -0.000000 0.025000
v 1.190000 0.080000 0.025000
v 0.574000 1.490000 -0.025000
v 0.574000 1.490000 0.025000
v 0.826000 1.490000 0.025000
v 0.826000 1.490000 -0.025000
v 0.826000 1.910000 -0.025000
v 0.826000 1.910000 0.025000
v 0.574000 1.910000 0.025000
v 0.574000 1.910000 -0.025000
v 0.860798 1.937651 0.035000
v 0.540600 1.937689 0.035000
v 0.574000 1.910000 0.035000
v 0.826000 1.910000 0.035000
v 1.167864 0.080000 0.035000
v 0.247048 0.080000 0.035000
v 0.230000 -0.000000 0.035000
v 1.190000 -0.000000 0.035000
v 1.190000 0.080161 -0.025000
v 1.190000 2.000000 -0.025000
v 1.190000 2.000000 0.025000
v 0.230000 0.080000 0.025000
v 0.230000 -0.000000 0.025000
v 0.247048 0.080000 0.025000
v 0.428510 0.991180 0.097175
v 0.982621 0.991180 0.097175
v 0.978732 1.008820 0.097175
v 0.432196 1.008820 0.097175
v 1.167353 0.080153 -0.035000
v 1.190000 0.000000 -0.035000
v 0.230000 0.000000 -0.035000
v 0.251332 0.079847 -0.035000
v 0.230000 2.000000 -0.025000
v 1.190000 0.000000 -0.025000
v 1.167353 0.080153 -0.025000
v 0.230000 2.000000 0.025000
v 0.230000 0.079839 -0.025000
v 0.230000 0.000000 -0.025000
v 0.251332 0.079847 -0.025000
v 0.863844 1.455759 0.035000
v 0.826000 1.490000 0.035000
v 0.831511 1.455040 0.035000
v 0.831511 1.455040 0.025000
v 0.568730 1.455040 0.025000
v 0.538260 1.454085 0.035000
v 0.568730 1.455040 0.035000
v 0.574000 1.490000 0.035000
v 0.863844 1.455759 0.025000
v 0.860798 1.937651 0.025000
v 0.538260 1.454085 0.025000
v 0.540600 1.937689 0.025000
vt 0.859597 0.664910
vt 0.706589 0.664910
vt 0.706589 0.573105
vt 0.859597 0.573105
vt 0.577056 0.825172
vt 0.572187 0.827984
vt 0.572187 0.822361
vt 0.000000 1.000000
vt 0.000000 1.000000
vt 0.000000 1.000000
vt 0.000000 1.000000
vt 0.000000 1.000000
vt 0.000000 1.000000
vt 0.000000 1.000000
vt 0.605858 0.529498
vt 0.603046 0.524628
vt 0.608669 0.524628
vt 0.577056 0.819549
vt 0.683535 0.989957
vt 0.683535 0.989957
vt 0.683535 0.989957
vt 0.683535 0.989957
vt 0.600235 0.529498
vt 0.572187 0.816738
vt 0.000000 1.000000
vt 0.000000 1.000000
vt 0.000000 1.000000
vt 0.000000 1.000000
vt 0.000000 1.000000
vt 0.000000 1.000000
vt 0.000000 1.000000
vt 0.597423 0.524628
vt 0.567317 0.819549
vt 0.683535 0.989957
vt 0.683535 0.989957
vt 0.683535 0.989957
vt 0.683535 0.989957
vt 0.600235 0.519758
vt 0.567317 0.825172
vt 0.690894 0.989935
vt 0.691479 0.915930
vt 0.699556 0.914334
vt 0.698850 0.990000
vt 0.605858 0.519758
vt 0.683535 0.989957
vt 0.683635 0.917435
vt 0.691612 0.915952
vt 0.691493 0.989968
vt 0.025817 0.597710
vt 0.021855 0.597710
vt 0.021855 0.584960
vt 0.025817 0.584960
vt 0.483166 0.514963
vt 0.487128 0.514963
vt 0.487128 0.553215
vt 0.483166 0.553215
vt 0.556403 0.569153
vt 0.556403 0.565191
vt 0.569153 0.565191
vt 0.569153 0.569153
vt 0.518403 0.828116
vt 0.521734 0.828116
vt 0.521734 0.866368
vt 0.518403 0.866368
vt 0.519758 0.508799
vt 0.481506 0.508799
vt 0.481506 0.496048
vt 0.519758 0.496048
vt 0.010000 0.504663
vt 0.010000 0.466411
vt 0.022751 0.466411
vt 0.022751 0.504663
vt 0.022751 0.700177
vt 0.022751 0.703508
vt 0.010000 0.703508
vt 0.010000 0.700177
vt 0.508524 0.514963
vt 0.511855 0.514963
vt 0.511855 0.553215
vt 0.508524 0.553215
vt 0.556403 0.543795
vt 0.556403 0.540464
vt 0.569153 0.540464
vt 0.569153 0.543795
vt 0.497007 0.866368
vt 0.497007 0.828116
vt 0.584960 0.490459
vt 0.584960 0.511855
vt 0.572209 0.511855
vt 0.572209 0.490459
vt 0.493045 0.866368
vt 0.493045 0.828116
vt 0.576161 0.569285
vt 0.576161 0.553347
vt 0.588911 0.553347
vt 0.588911 0.569285
vt 0.508524 0.569153
vt 0.487128 0.569153
vt 0.591967 0.511855
vt 0.591967 0.495917
vt 0.604718 0.495917
vt 0.604718 0.511855
vt 0.497007 0.812177
vt 0.518403 0.812177
vt 0.501080 0.488156
vt 0.501080 0.484194
vt 0.513831 0.484194
vt 0.513831 0.488156
vt 0.520706 0.514963
vt 0.524668 0.514963
vt 0.524668 0.553215
vt 0.520706 0.553215
vt 0.566282 0.865524
vt 0.566282 0.861562
vt 0.579032 0.861562
vt 0.579032 0.865524
vt 0.533916 0.849585
vt 0.530585 0.849585
vt 0.530585 0.811333
vt 0.533916 0.811333
vt 0.565202 0.508799
vt 0.526950 0.508799
vt 0.526950 0.496048
vt 0.565202 0.496048
vt 0.010000 0.457244
vt 0.010000 0.418992
vt 0.022751 0.418992
vt 0.022751 0.457244
vt 0.481322 0.487525
vt 0.481322 0.484194
vt 0.494073 0.484194
vt 0.494073 0.487525
vt 0.546064 0.514963
vt 0.549395 0.514963
vt 0.549395 0.553215
vt 0.546064 0.553215
vt 0.566282 0.840166
vt 0.566282 0.836835
vt 0.579032 0.836835
vt 0.579032 0.840166
vt 0.555312 0.811333
vt 0.555312 0.849585
vt 0.596815 0.806588
vt 0.596815 0.827984
vt 0.584064 0.827984
vt 0.584064 0.806588
vt 0.559274 0.811333
vt 0.559274 0.849585
vt 0.586040 0.865656
vt 0.586040 0.849718
vt 0.598790 0.849718
vt 0.598790 0.865656
vt 0.546064 0.569153
vt 0.524668 0.569153
vt 0.022751 0.395282
vt 0.022751 0.411221
vt 0.010000 0.411221
vt 0.010000 0.395282
vt 0.555312 0.865524
vt 0.533916 0.865524
vt 0.035538 0.376883
vt 0.010000 0.370040
vt 0.035532 0.369831
vt 0.675215 0.856118
vt 0.659277 0.856118
vt 0.659277 0.775789
vt 0.675215 0.775789
vt 0.675215 0.641907
vt 0.659277 0.641907
vt 0.659277 0.561578
vt 0.675215 0.561578
vt 0.759836 0.553338
vt 0.657766 0.553347
vt 0.668413 0.544521
vt 0.748743 0.544523
vt 0.308959 0.237218
vt 0.015434 0.237218
vt 0.010000 0.211716
vt 0.316015 0.211716
vt 0.940735 0.361831
vt 0.328750 0.361826
vt 0.328750 0.345887
vt 0.940785 0.345893
vt 0.035535 0.675847
vt 0.010034 0.675846
vt 0.035535 0.670413
vt 0.691597 0.914566
vt 0.691514 0.664582
vt 0.699473 0.666336
vt 0.699455 0.912929
vt 0.017220 0.270806
vt 0.010000 0.245256
vt 0.316015 0.245256
vt 0.309215 0.270709
vt 0.647539 0.990000
vt 0.618849 0.873969
vt 0.618849 0.793640
vt 0.647539 0.683984
vt 0.035558 0.989999
vt 0.010000 0.989971
vt 0.035555 0.982781
vt 0.354241 0.322179
vt 0.966290 0.322177
vt 0.966290 0.338116
vt 0.354199 0.338116
vt 0.010000 0.332057
vt 0.010000 0.316118
vt 0.316015 0.316118
vt 0.316015 0.332057
vt 0.316015 0.342568
vt 0.316015 0.358506
vt 0.010000 0.358506
vt 0.010000 0.342568
vt 0.675215 0.990000
vt 0.659277 0.990000
vt 0.035457 0.690784
vt 0.010006 0.683985
vt 0.035456 0.683984
vt 0.966290 0.361825
vt 0.966283 0.345887
vt 0.328759 0.338143
vt 0.328725 0.322208
vt 0.760806 0.399728
vt 0.748743 0.410643
vt 0.750500 0.399499
vt 0.473853 0.484105
vt 0.473853 0.567871
vt 0.657022 0.399188
vt 0.666734 0.399492
vt 0.668414 0.410638
vt 0.484967 0.793640
vt 0.484967 0.873969
vt 0.025043 0.664765
vt 0.021855 0.664765
vt 0.021855 0.638306
vt 0.025043 0.638306
vt 0.010000 0.308347
vt 0.010000 0.305159
vt 0.303525 0.305159
vt 0.303525 0.308347
vt 0.021855 0.604718
vt 0.025043 0.604718
vt 0.025043 0.630793
vt 0.021855 0.630793
vt 0.316015 0.361694
vt 0.010000 0.361694
vt 0.010000 0.203629
vt 0.010000 0.200441
vt 0.301997 0.200441
vt 0.301997 0.203629
vt 0.021855 0.551371
vt 0.025043 0.551371
vt 0.025043 0.577923
vt 0.021855 0.577923
vt 0.010000 0.339380
vt 0.316015 0.339380
vt 0.025806 0.544127
vt 0.022620 0.544127
vt 0.022620 0.517782
vt 0.025806 0.517782
vt 0.474081 0.473798
vt 0.647566 0.369831
vt 0.627693 0.474769
vt 0.473548 0.577584
vt 0.647568 0.675847
vt 0.627704 0.576838
vt 0.683535 0.989957
vt 0.683535 0.989957
vt 0.683535 0.989957
vt 0.683535 0.989957
vt 0.691493 0.594206
vt 0.699452 0.594203
vt 0.683554 0.663085
vt 0.683535 0.594207
vt 0.683654 0.916167
vt 0.683535 0.989957
vt 0.683535 0.989957
vt 0.010000 0.711411
vt 0.013188 0.711411
vt 0.013188 0.721721
vt 0.010000 0.721721
vt 0.017903 0.978145
vt 0.014716 0.978145
vt 0.014716 0.824532
vt 0.017903 0.824532
vt 0.656089 0.775789
vt 0.656089 0.641907
vt 0.013188 0.666012
vt 0.010000 0.666012
vt 0.010000 0.511855
vt 0.013188 0.511855
vt 0.010000 0.805486
vt 0.013188 0.805486
vt 0.013188 0.815204
vt 0.010000 0.815204
vt 0.656090 0.990000
vt 0.656089 0.856118
vt 0.021855 0.713387
vt 0.025043 0.713387
vt 0.025043 0.815457
vt 0.021855 0.815457
vt 0.656089 0.561578
vn 0.0000 0.0000 -1.0000
vn -1.0000 -0.0000 0.0000
vn -0.0000 -0.6402 0.7682
vn -0.0000 -0.5000 -0.8660
vn 0.0000 -1.0000 -0.0000
vn 0.0000 -0.9820 0.1890
vn 1.0000 0.0000 0.0000
vn 0.0000 0.5000 -0.8660
vn 0.0000 0.8451 0.5346
vn -0.0000 0.9820 0.1890
vn 0.0000 1.0000 0.0000
vn 0.0000 0.5000 0.8660
vn 0.0000 0.8660 0.5000
vn 0.0000 -0.5000 0.8660
vn -0.0000 -0.1580 0.9874
vn 0.0000 0.2249 -0.9744
vn -0.0000 -0.8742 -0.4856
vn -0.0008 -0.1580 0.9874
vn 0.6055 0.7958 0.0000
vn 0.9638 0.2667 0.0000
vn -0.6291 0.7773 0.0000
vn -0.9780 0.2084 0.0000
vn 0.6032 0.7976 0.0000
vn -0.6092 0.7930 0.0000
vn 0.9623 0.2719 0.0000
vn -0.9661 0.2581 0.0000
vn 0.0010 -0.1580 0.9874
vn 0.0222 -0.9998 0.0000
vn 0.0111 -0.9999 0.0000
vn 1.0000 0.0063 0.0000
vn -1.0000 0.0048 0.0000
vn 0.0157 -0.9999 0.0000
vn 0.0313 -0.9995 0.0000
vn 0.0001 1.0000 0.0000
usemtl default
s 1
f 1/1/1 2/2/1 3/3/1 4/4/1
f 5/5/2 6/6/2 7/7/2
f 5/8/3 8/9/4 9/10/5 10/11/6 11/12/6 12/13/6 6/14/5
f 8/15/7 13/16/7 9/17/7
f 14/18/2 5/5/2 7/7/2
f 14/19/8 15/20/8 8/21/4 5/22/1
f 15/23/7 13/16/7 8/15/7
f 16/24/2 14/18/2 7/7/2
f 16/25/3 17/26/9 18/27/9 19/28/10 20/29/11 15/30/8 14/31/8
f 20/32/7 13/16/7 15/23/7
f 21/33/2 16/24/2 7/7/2
f 21/34/12 22/35/12 17/36/9 16/37/13
f 23/38/7 13/16/7 20/32/7
f 24/39/2 21/33/2 7/7/2
f 24/40/14 25/41/14 22/42/12 21/43/12
f 26/44/7 13/16/7 23/38/7
f 6/6/2 24/39/2 7/7/2
f 6/45/5 12/46/6 25/47/14 24/48/14
f 9/17/7 13/16/7 26/44/7
f 27/49/15 28/50/15 29/51/15 30/52/15
f 31/53/7 32/54/7 28/55/7 27/56/7
f 33/57/16 34/58/16 32/59/16 31/60/16
f 35/61/2 36/62/2 37/63/2 38/64/2
f 39/65/9 40/66/9 37/67/9 36/68/9
f 31/69/17 27/70/17 30/71/17 33/72/17
f 41/73/15 39/74/15 36/75/15 35/76/15
f 42/77/7 40/78/7 39/79/7 41/80/7
f 38/81/16 37/82/16 40/83/16 42/84/16
f 38/64/2 34/85/2 29/86/2 35/61/2
f 43/87/15 44/88/15 45/89/15 46/90/15
f 32/54/7 42/77/7 41/80/7 28/55/7
f 34/58/16 38/81/16 42/84/16 32/59/16
f 34/85/2 33/91/2 30/92/2 29/86/2
f 28/93/17 43/94/17 46/95/17 29/96/17
f 41/80/7 44/97/7 43/98/7 28/55/7
f 35/99/9 45/100/9 44/101/9 41/102/9
f 29/86/2 46/103/2 45/104/2 35/61/2
f 47/105/15 48/106/15 49/107/15 50/108/15
f 51/109/7 52/110/7 48/111/7 47/112/7
f 53/113/16 54/114/16 52/115/16 51/116/16
f 55/117/2 56/118/2 57/119/2 58/120/2
f 59/121/9 60/122/9 57/123/9 56/124/9
f 51/125/17 47/126/17 50/127/17 53/128/17
f 61/129/15 59/130/15 56/131/15 55/132/15
f 62/133/7 60/134/7 59/135/7 61/136/7
f 58/137/16 57/138/16 60/139/16 62/140/16
f 58/120/2 54/141/2 49/142/2 55/117/2
f 63/143/15 64/144/15 65/145/15 66/146/15
f 52/110/7 62/133/7 61/136/7 48/111/7
f 54/114/16 58/137/16 62/140/16 52/115/16
f 54/141/2 53/147/2 50/148/2 49/142/2
f 48/149/17 63/150/17 66/151/17 49/152/17
f 61/136/7 64/153/7 63/154/7 48/111/7
f 55/155/9 65/156/9 64/157/9 61/158/9
f 49/142/2 66/159/2 65/160/2 55/117/2
f 67/161/15 68/162/15 69/163/15
f 70/164/9 71/165/9 72/166/9 73/167/9
f 74/168/17 75/169/17 76/170/17 77/171/17
f 78/172/15 79/173/18 80/174/15 81/175/15
f 82/176/15 83/177/15 84/178/15 85/179/15
f 86/180/7 87/181/7 88/182/7 69/183/7
f 89/184/15 90/185/15 91/186/15
f 92/187/14 93/188/14 94/189/12 95/190/12
f 96/191/16 97/192/16 98/193/16 99/194/16
f 87/195/16 74/196/16 77/197/16 100/198/16
f 86/199/16 101/200/16 102/201/16
f 89/202/2 103/203/2 100/204/2 104/205/2
f 88/206/9 87/207/9 100/208/9 103/209/9
f 101/210/17 68/211/17 90/212/17 105/213/17
f 75/169/2 74/168/2 73/167/2 72/166/2
f 77/214/7 76/215/7 71/165/7 70/164/7
f 106/216/16 105/217/16 104/218/16
f 101/219/7 86/180/7 69/183/7 68/220/7
f 104/205/2 105/221/2 90/222/2 89/202/2
f 107/223/3 78/172/15 81/175/15 108/224/15 109/225/15
f 67/161/15 110/226/15 111/227/15 91/186/15
f 112/228/15 113/229/15 114/230/15 80/174/15 79/173/18
f 106/216/16 70/231/16 73/232/16 102/201/16
f 102/201/16 73/232/16 74/196/16 87/195/16 86/199/16
f 104/218/16 100/198/16 77/197/16 70/231/16 106/216/16
f 67/233/19 82/234/19 85/235/20 68/236/20
f 91/237/21 83/238/21 82/239/19 67/240/19
f 90/241/22 84/242/22 83/243/21 91/244/21
f 68/211/17 85/245/17 84/246/17 90/212/17
f 102/247/23 96/248/23 99/249/24 106/250/24
f 101/251/25 97/252/25 96/253/23 102/254/23
f 105/213/17 98/255/17 97/256/17 101/210/17
f 106/257/24 99/258/24 98/259/26 105/260/26
f 115/261/15 69/163/15 88/262/15 116/263/27
f 91/186/15 111/227/15 117/264/15 89/184/15
f 116/263/27 88/262/15 103/265/15 118/266/15
f 109/225/15 108/224/15 114/230/15 113/229/15
f 94/267/12 23/268/12 20/269/11 19/270/10
f 93/188/14 26/271/14 23/272/12 94/189/12
f 10/273/6 9/274/5 26/271/14 93/188/14
f 115/261/15 110/226/15 67/161/15 69/163/15
f 12/46/6 11/275/6 92/187/14 25/47/14
f 22/35/12 95/276/12 18/277/9 17/36/9
f 25/41/14 92/187/14 95/190/12 22/42/12
f 117/264/15 118/266/15 103/265/15 89/184/15
f 11/275/6 10/273/6 93/188/14 92/187/14
f 95/276/12 94/267/12 19/270/10 18/277/9
f 115/278/28 107/279/28 109/280/29 110/281/29
f 116/282/30 78/283/30 107/284/30 115/285/30
f 72/166/2 108/286/2 81/287/2 75/169/2
f 117/288/31 112/289/31 79/290/31 118/291/31
f 111/292/32 113/293/32 112/294/33 117/295/33
f 76/215/7 80/296/7 114/297/7 71/165/7
f 118/298/34 79/299/34 78/300/34 116/301/34
f 75/169/17 81/287/17 80/302/17 76/170/17
f 110/281/29 109/280/29 113/293/32 111/292/32
f 71/165/9 114/297/9 108/286/9 72/166/9
o Cube.2
v 1.210000 -0.000000 0.050000
v 1.210000 2.000000 0.050000
v 1.170000 2.000000 0.050000
v 1.170000 -0.000000 0.050000
v 1.210000 0.000000 -0.050000
v 1.210000 2.000000 -0.050000
v 1.170000 0.000000 -0.050000
v 1.170000 2.000000 -0.050000
v 1.210000 2.050000 0.050000
v 1.210000 2.050000 -0.050000
v 1.170000 2.050000 -0.050000
v 1.170000 2.050000 0.050000
v 0.250000 -0.000000 0.050000
v 0.250000 2.000000 0.050000
v 0.210000 2.000000 0.050000
v 0.210000 -0.000000 0.050000
v 0.250000 0.000000 -0.050000
v 0.250000 2.000000 -0.050000
v 0.210000 0.000000 -0.050000
v 0.210000 2.000000 -0.050000
v 0.250000 2.050000 0.050000
v 0.250000 2.050000 -0.050000
v 0.210000 2.050000 -0.050000
v 0.210000 2.050000 0.050000
vt 0.966290 0.315170
vt 0.328759 0.315170
vt 0.328759 0.302419
vt 0.966290 0.302419
vt 0.336531 0.262904
vt 0.974062 0.262903
vt 0.974062 0.294780
vt 0.336531 0.294781
vt 0.966290 0.255896
vt 0.328759 0.255896
vt 0.328759 0.243145
vt 0.966290 0.243145
vt 0.966290 0.235506
vt 0.328759 0.235506
vt 0.328759 0.203629
vt 0.966290 0.203629
vt 0.739072 0.990000
vt 0.707196 0.990000
vt 0.707196 0.977249
vt 0.739072 0.977249
vt 0.557033 0.519758
vt 0.588911 0.519758
vt 0.588911 0.532509
vt 0.557033 0.532509
vt 0.966290 0.196622
vt 0.328759 0.196622
vt 0.328759 0.183871
vt 0.966290 0.183871
vt 0.966290 0.176232
vt 0.328759 0.176231
vt 0.328759 0.144355
vt 0.966290 0.144355
vt 0.966290 0.137347
vt 0.328759 0.137347
vt 0.328759 0.124597
vt 0.966290 0.124597
vt 0.990000 0.116956
vt 0.352483 0.116965
vt 0.352498 0.085085
vt 0.990000 0.085081
vt 0.739072 0.683985
vt 0.707195 0.683985
vt 0.707196 0.671234
vt 0.739073 0.671234
vt 0.608669 0.537275
vt 0.608669 0.569153
vt 0.595919 0.569153
vt 0.595919 0.537275
vt 0.328766 0.278578
vt 0.328766 0.294516
vt 0.316015 0.294516
vt 0.316015 0.278578
vt 0.990000 0.262903
vt 0.990000 0.294781
vt 0.762782 0.683982
vt 0.746843 0.683982
vt 0.746843 0.671231
vt 0.762781 0.671231
vt 0.022751 0.278578
vt 0.022751 0.294516
vt 0.010000 0.294516
vt 0.010000 0.278578
vt 0.762781 0.990000
vt 0.746842 0.989997
vt 0.746844 0.977249
vt 0.762782 0.977249
vt 0.336543 0.116949
vt 0.336560 0.085081
vt 0.802298 0.696736
vt 0.802298 0.990000
vt 0.770422 0.990000
vt 0.770422 0.696736
vn 0.0000 0.8451 0.5346
vn 1.0000 -0.0000 0.0000
vn 0.0000 -0.8742 -0.4856
vn -1.0000 -0.0000 0.0000
vn 0.0000 0.2249 -0.9744
vn 0.0000 -0.1580 0.9874
usemtl default.001
s 1
f 119/303/35 120/304/35 121/305/35 122/306/35
f 123/307/36 124/308/36 120/309/36 119/310/36
f 125/311/37 126/312/37 124/313/37 123/314/37
f 122/315/38 121/316/38 126/317/38 125/318/38
f 127/319/39 128/320/39 129/321/39 130/322/39
f 123/323/40 119/324/40 122/325/40 125/326/40
f 131/327/35 132/328/35 133/329/35 134/330/35
f 135/331/36 136/332/36 132/333/36 131/334/36
f 137/335/37 138/336/37 136/337/37 135/338/37
f 134/339/38 133/340/38 138/341/38 137/342/38
f 139/343/39 140/344/39 141/345/39 142/346/39
f 135/347/40 131/348/40 134/349/40 137/350/40
f 120/351/35 127/352/35 130/353/35 121/354/35
f 124/308/36 128/355/36 127/356/36 120/309/36
f 126/357/37 129/358/37 128/359/37 124/360/37
f 139/343/39 130/322/39 129/321/39 140/344/39
f 132/361/35 139/362/35 142/363/35 133/364/35
f 132/361/35 121/354/35 130/353/35 139/362/35
f 138/365/37 141/366/37 140/367/37 136/368/37
f 133/340/38 142/369/38 141/370/38 138/341/38
f 136/371/40 126/372/40 121/373/40 132/374/40
f 140/367/37 129/358/37 126/357/37 136/368/37
